<mxfile host="app.diagrams.net" modified="2021-06-02T04:34:33.948Z" agent="5.0 (X11)" etag="stmHA0PP7sJFv1zkLpcX" version="14.6.13" type="github">
  <diagram id="prtHgNgQTEPvFCAcTncT" name="Page-1">
    <mxGraphModel dx="1357" dy="774" grid="1" gridSize="10" guides="1" tooltips="1" connect="1" arrows="1" fold="1" page="1" pageScale="1" pageWidth="827" pageHeight="1169" math="0" shadow="0">
      <root>
        <mxCell id="0" />
        <mxCell id="1" parent="0" />
        <mxCell id="ailTWp-TDCTzvs8Eqd1J-1" value="Vertical Container" style="swimlane;" vertex="1" parent="1">
          <mxGeometry y="40" width="200" height="200" as="geometry" />
        </mxCell>
        <mxCell id="ailTWp-TDCTzvs8Eqd1J-2" value="Vertical Container" style="swimlane;" vertex="1" parent="1">
          <mxGeometry x="400" y="40" width="200" height="200" as="geometry" />
        </mxCell>
        <mxCell id="ailTWp-TDCTzvs8Eqd1J-3" value="Vertical Container" style="swimlane;" vertex="1" parent="1">
          <mxGeometry x="200" y="40" width="200" height="200" as="geometry" />
        </mxCell>
        <mxCell id="ailTWp-TDCTzvs8Eqd1J-4" value="Vertical Container" style="swimlane;" vertex="1" parent="1">
          <mxGeometry x="600" y="40" width="200" height="200" as="geometry" />
        </mxCell>
        <mxCell id="ailTWp-TDCTzvs8Eqd1J-5" value="Vertical Container" style="swimlane;" vertex="1" parent="1">
          <mxGeometry x="800" y="40" width="200" height="200" as="geometry" />
        </mxCell>
      </root>
    </mxGraphModel>
  </diagram>
</mxfile>
